<svg width="42" height="123" viewBox="0 0 42 123" fill="none" xmlns="http://www.w3.org/2000/svg">
<path d="M6 120.539V117.27H29.3086L33 117.551V120.539H6ZM23.332 104.42H23.7012C25.084 104.42 26.3672 104.584 27.5508 104.912C28.7227 105.24 29.7422 105.721 30.6094 106.354C31.4766 106.986 32.1504 107.76 32.6309 108.674C33.1113 109.588 33.3516 110.637 33.3516 111.82C33.3516 113.027 33.1465 114.088 32.7363 115.002C32.3145 115.904 31.7109 116.666 30.9258 117.287C30.1406 117.908 29.1914 118.406 28.0781 118.781C26.9648 119.145 25.7109 119.396 24.3164 119.537H22.6992C21.293 119.396 20.0332 119.145 18.9199 118.781C17.8066 118.406 16.8574 117.908 16.0723 117.287C15.2754 116.666 14.6719 115.904 14.2617 115.002C13.8398 114.1 13.6289 113.051 13.6289 111.855C13.6289 110.66 13.8633 109.6 14.332 108.674C14.7891 107.748 15.4453 106.975 16.3008 106.354C17.1562 105.721 18.1816 105.24 19.377 104.912C20.5605 104.584 21.8789 104.42 23.332 104.42ZM23.7012 107.689H23.332C22.3828 107.689 21.4922 107.777 20.6602 107.953C19.8164 108.129 19.0781 108.41 18.4453 108.797C17.8008 109.184 17.2969 109.693 16.9336 110.326C16.5586 110.959 16.3711 111.738 16.3711 112.664C16.3711 113.484 16.5117 114.199 16.793 114.809C17.0742 115.406 17.4551 115.916 17.9355 116.338C18.4043 116.76 18.9434 117.105 19.5527 117.375C20.1504 117.633 20.7715 117.826 21.416 117.955H25.6523C26.4727 117.768 27.2637 117.463 28.0254 117.041C28.7754 116.607 29.3906 116.033 29.8711 115.318C30.3516 114.592 30.5918 113.695 30.5918 112.629C30.5918 111.75 30.416 111 30.0645 110.379C29.7012 109.746 29.2031 109.236 28.5703 108.85C27.9375 108.451 27.2051 108.158 26.373 107.971C25.541 107.783 24.6504 107.689 23.7012 107.689ZM13.9805 97.8534H33V101.123H13.9805V97.8534ZM8.93555 101.369C8.4082 101.369 7.96289 101.211 7.59961 100.894C7.23633 100.566 7.05469 100.086 7.05469 99.453C7.05469 98.832 7.23633 98.3573 7.59961 98.0292C7.96289 97.6894 8.4082 97.5195 8.93555 97.5195C9.43945 97.5195 9.87305 97.6894 10.2363 98.0292C10.5879 98.3573 10.7637 98.832 10.7637 99.453C10.7637 100.086 10.5879 100.566 10.2363 100.894C9.87305 101.211 9.43945 101.369 8.93555 101.369ZM16.9688 90.4608H33V93.7127H13.9805V90.5487L16.9688 90.4608ZM13.875 84.5194L16.8984 84.537C16.8398 84.8065 16.8047 85.0643 16.793 85.3104C16.7695 85.5448 16.7578 85.8143 16.7578 86.119C16.7578 86.869 16.875 87.5311 17.1094 88.1053C17.3438 88.6795 17.6719 89.1659 18.0938 89.5643C18.5156 89.9627 19.0195 90.2791 19.6055 90.5135C20.1797 90.7362 20.8125 90.8827 21.5039 90.953L22.0313 91.867C20.8828 91.867 19.8047 91.7557 18.7969 91.533C17.7891 91.2987 16.8984 90.9412 16.125 90.4608C15.3398 89.9803 14.7305 89.3709 14.2969 88.6327C13.8516 87.8827 13.6289 86.992 13.6289 85.9608C13.6289 85.7264 13.6582 85.4569 13.7168 85.1522C13.7637 84.8475 13.8164 84.6366 13.875 84.5194ZM13.9805 73.7517H16.4766V84.0349H13.9805L13.9805 73.7517ZM9.35742 80.5545L9.35742 77.3025H28.2891C28.9336 77.3025 29.4199 77.2029 29.748 77.0037C30.0762 76.8045 30.293 76.5466 30.3984 76.2302C30.5039 75.9138 30.5566 75.574 30.5566 75.2107C30.5566 74.9412 30.5332 74.6599 30.4863 74.367C30.4277 74.0623 30.3809 73.8338 30.3457 73.6814L33 73.6638C33.082 73.9216 33.1582 74.2615 33.2285 74.6834C33.3105 75.0935 33.3516 75.5916 33.3516 76.1775C33.3516 76.9744 33.1934 77.7068 32.877 78.3748C32.5605 79.0427 32.0332 79.5759 31.2949 79.9744C30.5449 80.3611 29.5371 80.5545 28.2715 80.5545H9.35742ZM6 67.7653H33V71.0173H6V67.7653ZM22.7695 68.5387L22.7168 69.8923C21.416 69.8805 20.2148 69.6872 19.1133 69.3122C18 68.9372 17.0332 68.4098 16.2129 67.7302C15.3926 67.0505 14.7598 66.2419 14.3145 65.3044C13.8574 64.3552 13.6289 63.3063 13.6289 62.1579C13.6289 61.2204 13.7578 60.3766 14.0156 59.6266C14.2617 58.8766 14.6602 58.238 15.2109 57.7106C15.7617 57.1716 16.4766 56.7614 17.3555 56.4802C18.2227 56.1989 19.2832 56.0583 20.5371 56.0583H33V59.3278H20.502C19.5059 59.3278 18.709 59.4743 18.1113 59.7673C17.502 60.0602 17.0625 60.488 16.793 61.0505C16.5117 61.613 16.3711 62.3044 16.3711 63.1247C16.3711 63.9333 16.541 64.6716 16.8809 65.3395C17.2207 65.9958 17.6895 66.5641 18.2871 67.0446C18.8848 67.5134 19.5703 67.8825 20.3438 68.152C21.1055 68.4098 21.9141 68.5387 22.7695 68.5387ZM29.3086 40.2809H6V37.0113H33V39.9996L29.3086 40.2809ZM23.7012 53.0777H23.332C21.8789 53.0777 20.5605 52.902 19.377 52.5504C18.1816 52.1871 17.1563 51.6773 16.3008 51.0211C15.4453 50.3531 14.7891 49.5621 14.332 48.648C13.8633 47.7223 13.6289 46.691 13.6289 45.5543C13.6289 44.359 13.8398 43.316 14.2617 42.4254C14.6719 41.523 15.2754 40.7613 16.0723 40.1402C16.8574 39.5074 17.8066 39.0094 18.9199 38.6461C20.0332 38.2828 21.293 38.0309 22.6992 37.8902H24.3164C25.7109 38.0191 26.9648 38.2711 28.0781 38.6461C29.1914 39.0094 30.1406 39.5074 30.9258 40.1402C31.7109 40.7613 32.3145 41.523 32.7363 42.4254C33.1465 43.3277 33.3516 44.3824 33.3516 45.5895C33.3516 46.7027 33.1113 47.7223 32.6309 48.648C32.1504 49.5621 31.4766 50.3531 30.6094 51.0211C29.7422 51.6773 28.7227 52.1871 27.5508 52.5504C26.3672 52.902 25.084 53.0777 23.7012 53.0777ZM23.332 49.8082H23.7012C24.6504 49.8082 25.541 49.7145 26.373 49.527C27.2051 49.3277 27.9375 49.023 28.5703 48.6129C29.2031 48.2027 29.7012 47.6813 30.0645 47.0484C30.416 46.4156 30.5918 45.6598 30.5918 44.7809C30.5918 43.7027 30.3633 42.818 29.9063 42.1266C29.4492 41.4234 28.8457 40.8609 28.0957 40.4391C27.3457 40.0172 26.5313 39.6891 25.6523 39.4547H21.416C20.7715 39.5953 20.1504 39.8004 19.5527 40.0699C18.9434 40.3277 18.4043 40.6676 17.9355 41.0895C17.4551 41.4996 17.0742 42.0094 16.793 42.6188C16.5117 43.2164 16.3711 43.9254 16.3711 44.7457C16.3711 45.6363 16.5586 46.4039 16.9336 47.0484C17.2969 47.6813 17.8008 48.2027 18.4453 48.6129C19.0781 49.023 19.8164 49.3277 20.6602 49.527C21.4922 49.7145 22.3828 49.8082 23.332 49.8082ZM29.748 21.814H19.957C19.207 21.814 18.5566 21.9663 18.0059 22.271C17.4434 22.564 17.0098 23.0093 16.7051 23.607C16.4004 24.2046 16.248 24.9429 16.248 25.8218C16.248 26.6421 16.3887 27.3628 16.6699 27.9839C16.9512 28.5933 17.3203 29.0738 17.7773 29.4253C18.2344 29.7652 18.7266 29.9351 19.2539 29.9351V33.187C18.5742 33.187 17.9004 33.0113 17.2324 32.6597C16.5645 32.3081 15.9609 31.8042 15.4219 31.148C14.8711 30.48 14.4375 29.6831 14.1211 28.7573C13.793 27.8198 13.6289 26.7769 13.6289 25.6284C13.6289 24.2456 13.8633 23.0269 14.332 21.9722C14.8008 20.9058 15.5098 20.0738 16.459 19.4761C17.3965 18.8667 18.5742 18.562 19.9922 18.562H28.8516C29.4844 18.562 30.1582 18.5093 30.873 18.4038C31.5879 18.2866 32.2031 18.1167 32.7188 17.8941H33V21.2866C32.625 21.4507 32.127 21.5796 31.5059 21.6734C30.873 21.7671 30.2871 21.814 29.748 21.814ZM21.4688 21.2515L23.7539 21.2163V24.5034C23.7539 25.4292 23.8301 26.2554 23.9824 26.982C24.123 27.7085 24.3398 28.3179 24.6328 28.8101C24.9258 29.3023 25.2949 29.6773 25.7402 29.9351C26.1738 30.1929 26.6836 30.3218 27.2695 30.3218C27.8672 30.3218 28.4121 30.187 28.9043 29.9175C29.3965 29.648 29.7891 29.2437 30.082 28.7046C30.3633 28.1538 30.5039 27.48 30.5039 26.6831C30.5039 25.687 30.293 24.8081 29.8711 24.0464C29.4492 23.2847 28.9336 22.6812 28.3242 22.2359C27.7148 21.7788 27.123 21.5327 26.5488 21.4976L28.1133 20.1089C28.6055 20.1909 29.1504 20.4136 29.748 20.7769C30.3457 21.1402 30.9199 21.6265 31.4707 22.2359C32.0098 22.8335 32.4609 23.5484 32.8242 24.3804C33.1758 25.2007 33.3516 26.1265 33.3516 27.1577C33.3516 28.4468 33.0996 29.5777 32.5957 30.5503C32.0918 31.5113 31.418 32.2613 30.5742 32.8003C29.7188 33.3277 28.7637 33.5913 27.709 33.5913C26.6895 33.5913 25.793 33.3921 25.0195 32.9937C24.2344 32.5952 23.584 32.021 23.0684 31.271C22.541 30.521 22.1426 29.6187 21.873 28.564C21.6035 27.5093 21.4688 26.3316 21.4688 25.0308V21.2515ZM31.0313 9.46429L13.9805 4.17328V0.69281L35.9355 8.32172C36.4043 8.4975 36.9082 8.73187 37.4473 9.02484C37.998 9.30609 38.5195 9.66937 39.0117 10.1147C39.5039 10.56 39.9023 11.0991 40.207 11.7319C40.5234 12.353 40.6816 13.0971 40.6816 13.9643C40.6816 14.2221 40.6465 14.5502 40.5762 14.9487C40.5059 15.3471 40.4473 15.6284 40.4004 15.7924L37.7637 15.81C37.7754 15.7162 37.7871 15.5698 37.7988 15.3705C37.8223 15.1596 37.834 15.0131 37.834 14.9311C37.834 14.1928 37.7344 13.5659 37.5352 13.0502C37.3477 12.5346 37.0254 12.101 36.5684 11.7495C36.123 11.3862 35.5078 11.0756 34.7227 10.8178L31.0313 9.46429ZM13.9805 13.3491L28.7461 8.40961L32.1738 7.56586L33.3691 9.90375L13.9805 16.8998V13.3491Z" fill="black"/>
</svg>
