<svg width="129" height="42" viewBox="0 0 129 42" fill="none" xmlns="http://www.w3.org/2000/svg">
<path d="M14.4668 29.3086V6H17.7363V33H14.748L14.4668 29.3086ZM1.66992 23.7012V23.332C1.66992 21.8789 1.8457 20.5605 2.19727 19.377C2.56055 18.1816 3.07031 17.1562 3.72656 16.3008C4.39453 15.4453 5.18555 14.7891 6.09961 14.332C7.02539 13.8633 8.05664 13.6289 9.19336 13.6289C10.3887 13.6289 11.4316 13.8398 12.3223 14.2617C13.2246 14.6719 13.9863 15.2754 14.6074 16.0723C15.2402 16.8574 15.7383 17.8066 16.1016 18.9199C16.4648 20.0332 16.7168 21.293 16.8574 22.6992V24.3164C16.7285 25.7109 16.4766 26.9648 16.1016 28.0781C15.7383 29.1914 15.2402 30.1406 14.6074 30.9258C13.9863 31.7109 13.2246 32.3145 12.3223 32.7363C11.4199 33.1465 10.3652 33.3516 9.1582 33.3516C8.04492 33.3516 7.02539 33.1113 6.09961 32.6309C5.18555 32.1504 4.39453 31.4766 3.72656 30.6094C3.07031 29.7422 2.56055 28.7227 2.19727 27.5508C1.8457 26.3672 1.66992 25.084 1.66992 23.7012ZM4.93945 23.332V23.7012C4.93945 24.6504 5.0332 25.541 5.2207 26.373C5.41992 27.2051 5.72461 27.9375 6.13477 28.5703C6.54492 29.2031 7.06641 29.7012 7.69922 30.0645C8.33203 30.416 9.08789 30.5918 9.9668 30.5918C11.0449 30.5918 11.9297 30.3633 12.6211 29.9062C13.3242 29.4492 13.8867 28.8457 14.3086 28.0957C14.7305 27.3457 15.0586 26.5312 15.293 25.6523V21.416C15.1523 20.7715 14.9473 20.1504 14.6777 19.5527C14.4199 18.9434 14.0801 18.4043 13.6582 17.9355C13.248 17.4551 12.7383 17.0742 12.1289 16.793C11.5312 16.5117 10.8223 16.3711 10.002 16.3711C9.11133 16.3711 8.34375 16.5586 7.69922 16.9336C7.06641 17.2969 6.54492 17.8008 6.13477 18.4453C5.72461 19.0781 5.41992 19.8164 5.2207 20.6602C5.0332 21.4922 4.93945 22.3828 4.93945 23.332ZM51.6537 29.748V19.957C51.6537 19.207 51.5013 18.5566 51.1966 18.0059C50.9037 17.4434 50.4584 17.0098 49.8607 16.7051C49.263 16.4004 48.5248 16.248 47.6459 16.248C46.8255 16.248 46.1048 16.3887 45.4837 16.6699C44.8744 16.9512 44.3939 17.3203 44.0423 17.7773C43.7025 18.2344 43.5326 18.7266 43.5326 19.2539H40.2806C40.2806 18.5742 40.4564 17.9004 40.808 17.2324C41.1595 16.5645 41.6634 15.9609 42.3197 15.4219C42.9877 14.8711 43.7845 14.4375 44.7103 14.1211C45.6478 13.793 46.6908 13.6289 47.8392 13.6289C49.222 13.6289 50.4408 13.8633 51.4955 14.332C52.5619 14.8008 53.3939 15.5098 53.9916 16.459C54.6009 17.3965 54.9056 18.5742 54.9056 19.9922V28.8516C54.9056 29.4844 54.9584 30.1582 55.0638 30.873C55.181 31.5879 55.3509 32.2031 55.5736 32.7188V33H52.181C52.017 32.625 51.888 32.127 51.7943 31.5059C51.7005 30.873 51.6537 30.2871 51.6537 29.748ZM52.2162 21.4688L52.2513 23.7539H48.9642C48.0384 23.7539 47.2123 23.8301 46.4857 23.9824C45.7591 24.123 45.1498 24.3398 44.6576 24.6328C44.1654 24.9258 43.7904 25.2949 43.5326 25.7402C43.2748 26.1738 43.1459 26.6836 43.1459 27.2695C43.1459 27.8672 43.2806 28.4121 43.5502 28.9043C43.8197 29.3965 44.224 29.7891 44.763 30.082C45.3138 30.3633 45.9877 30.5039 46.7845 30.5039C47.7806 30.5039 48.6595 30.293 49.4212 29.8711C50.183 29.4492 50.7865 28.9336 51.2318 28.3242C51.6888 27.7148 51.9349 27.123 51.9701 26.5488L53.3587 28.1133C53.2767 28.6055 53.0541 29.1504 52.6908 29.748C52.3275 30.3457 51.8412 30.9199 51.2318 31.4707C50.6341 32.0098 49.9193 32.4609 49.0873 32.8242C48.267 33.1758 47.3412 33.3516 46.3099 33.3516C45.0209 33.3516 43.89 33.0996 42.9173 32.5957C41.9564 32.0918 41.2064 31.418 40.6673 30.5742C40.14 29.7188 39.8763 28.7637 39.8763 27.709C39.8763 26.6895 40.0755 25.793 40.474 25.0195C40.8724 24.2344 41.4466 23.584 42.1966 23.0684C42.9466 22.541 43.849 22.1426 44.9037 21.873C45.9584 21.6035 47.1361 21.4688 48.4369 21.4688H52.2162ZM82.7234 31.0312L88.0144 13.9805H91.4948L83.8659 35.9355C83.6902 36.4043 83.4558 36.9082 83.1628 37.4473C82.8816 37.998 82.5183 38.5195 82.073 39.0117C81.6277 39.5039 81.0886 39.9023 80.4558 40.207C79.8347 40.5234 79.0905 40.6816 78.2234 40.6816C77.9655 40.6816 77.6374 40.6465 77.239 40.5762C76.8405 40.5059 76.5593 40.4473 76.3952 40.4004L76.3777 37.7637C76.4714 37.7754 76.6179 37.7871 76.8171 37.7988C77.028 37.8223 77.1745 37.834 77.2566 37.834C77.9948 37.834 78.6218 37.7344 79.1374 37.5352C79.653 37.3477 80.0866 37.0254 80.4382 36.5684C80.8015 36.123 81.112 35.5078 81.3698 34.7227L82.7234 31.0312ZM78.8386 13.9805L83.778 28.7461L84.6218 32.1738L82.2839 33.3691L75.2878 13.9805H78.8386ZM123.145 27.9551C123.145 27.4863 123.039 27.0527 122.828 26.6543C122.629 26.2441 122.213 25.875 121.58 25.5469C120.959 25.207 120.022 24.9141 118.768 24.668C117.713 24.4453 116.758 24.1816 115.902 23.877C115.059 23.5723 114.338 23.2031 113.74 22.7695C113.154 22.3359 112.703 21.8262 112.387 21.2402C112.07 20.6543 111.912 19.9688 111.912 19.1836C111.912 18.4336 112.076 17.7246 112.404 17.0566C112.744 16.3887 113.219 15.7969 113.828 15.2812C114.449 14.7656 115.193 14.3613 116.061 14.0684C116.928 13.7754 117.895 13.6289 118.961 13.6289C120.484 13.6289 121.785 13.8984 122.863 14.4375C123.941 14.9766 124.768 15.6973 125.342 16.5996C125.916 17.4902 126.203 18.4805 126.203 19.5703H122.951C122.951 19.043 122.793 18.5332 122.477 18.041C122.172 17.5371 121.721 17.1211 121.123 16.793C120.537 16.4648 119.816 16.3008 118.961 16.3008C118.059 16.3008 117.326 16.4414 116.764 16.7227C116.213 16.9922 115.809 17.3379 115.551 17.7598C115.305 18.1816 115.182 18.627 115.182 19.0957C115.182 19.4473 115.24 19.7637 115.357 20.0449C115.486 20.3145 115.709 20.5664 116.025 20.8008C116.342 21.0234 116.787 21.2344 117.361 21.4336C117.936 21.6328 118.668 21.832 119.559 22.0312C121.117 22.3828 122.4 22.8047 123.408 23.2969C124.416 23.7891 125.166 24.3926 125.658 25.1074C126.15 25.8223 126.397 26.6895 126.397 27.709C126.397 28.541 126.221 29.3027 125.869 29.9941C125.529 30.6855 125.031 31.2832 124.375 31.7871C123.731 32.2793 122.957 32.666 122.055 32.9473C121.164 33.2168 120.162 33.3516 119.049 33.3516C117.373 33.3516 115.955 33.0527 114.795 32.4551C113.635 31.8574 112.756 31.084 112.158 30.1348C111.561 29.1855 111.262 28.1836 111.262 27.1289H114.531C114.578 28.0195 114.836 28.7285 115.305 29.2559C115.774 29.7715 116.348 30.1406 117.027 30.3633C117.707 30.5742 118.381 30.6797 119.049 30.6797C119.94 30.6797 120.684 30.5625 121.281 30.3281C121.891 30.0938 122.354 29.7715 122.67 29.3613C122.986 28.9512 123.145 28.4824 123.145 27.9551Z" fill="black"/>
</svg>
