<svg width="42" height="123" viewBox="0 0 42 123" fill="none" xmlns="http://www.w3.org/2000/svg">
<path d="M33 115.67V118.922H11.9766C10.6055 118.922 9.45117 118.676 8.51367 118.184C7.56445 117.68 6.84961 116.959 6.36914 116.021C5.87695 115.084 5.63086 113.971 5.63086 112.682C5.63086 112.307 5.6543 111.932 5.70117 111.557C5.74805 111.17 5.81836 110.795 5.91211 110.432L8.56641 110.607C8.50781 110.854 8.4668 111.135 8.44336 111.451C8.41992 111.756 8.4082 112.061 8.4082 112.365C8.4082 113.057 8.54883 113.654 8.83008 114.158C9.09961 114.65 9.49805 115.025 10.0254 115.283C10.5527 115.541 11.2031 115.67 11.9766 115.67H33ZM13.9805 111.627H16.4766V121.928H13.9805V111.627ZM29.748 81.311H19.957C19.207 81.311 18.5566 81.4634 18.0059 81.768C17.4434 82.061 17.0098 82.5063 16.7051 83.104C16.4004 83.7016 16.248 84.4399 16.248 85.3188C16.248 86.1391 16.3887 86.8598 16.6699 87.4809C16.9512 88.0903 17.3203 88.5708 17.7773 88.9223C18.2344 89.2622 18.7266 89.4321 19.2539 89.4321V92.6841C18.5742 92.6841 17.9004 92.5083 17.2324 92.1567C16.5645 91.8052 15.9609 91.3013 15.4219 90.645C14.8711 89.977 14.4375 89.1802 14.1211 88.2544C13.793 87.3169 13.6289 86.2739 13.6289 85.1255C13.6289 83.7427 13.8633 82.5239 14.332 81.4692C14.8008 80.4028 15.5098 79.5708 16.459 78.9731C17.3965 78.3638 18.5742 78.0591 19.9922 78.0591H28.8516C29.4844 78.0591 30.1582 78.0063 30.873 77.9009C31.5879 77.7837 32.2031 77.6138 32.7188 77.3911H33V80.7837C32.625 80.9477 32.127 81.0766 31.5059 81.1704C30.873 81.2641 30.2871 81.311 29.748 81.311ZM21.4688 80.7485L23.7539 80.7134V84.0005C23.7539 84.9263 23.8301 85.7524 23.9824 86.479C24.123 87.2055 24.3398 87.8149 24.6328 88.3071C24.9258 88.7993 25.2949 89.1743 25.7402 89.4321C26.1738 89.6899 26.6836 89.8188 27.2695 89.8188C27.8672 89.8188 28.4121 89.6841 28.9043 89.4145C29.3965 89.145 29.7891 88.7407 30.082 88.2016C30.3633 87.6509 30.5039 86.977 30.5039 86.1802C30.5039 85.1841 30.293 84.3052 29.8711 83.5434C29.4492 82.7817 28.9336 82.1782 28.3242 81.7329C27.7148 81.2759 27.123 81.0298 26.5488 80.9946L28.1133 79.6059C28.6055 79.688 29.1504 79.9106 29.748 80.2739C30.3457 80.6372 30.9199 81.1235 31.4707 81.7329C32.0098 82.3305 32.4609 83.0454 32.8242 83.8774C33.1758 84.6977 33.3516 85.6235 33.3516 86.6548C33.3516 87.9438 33.0996 89.0747 32.5957 90.0473C32.0918 91.0083 31.418 91.7583 30.5742 92.2973C29.7188 92.8247 28.7637 93.0884 27.709 93.0884C26.6895 93.0884 25.793 92.8891 25.0195 92.4907C24.2344 92.0923 23.584 91.518 23.0684 90.768C22.541 90.018 22.1426 89.1157 21.873 88.061C21.6035 87.0063 21.4688 85.8286 21.4688 84.5278V80.7485ZM16.9688 54.2119H33V57.4638H13.9805V54.2998L16.9688 54.2119ZM13.875 48.2705L16.8984 48.288C16.8398 48.5576 16.8047 48.8154 16.793 49.0615C16.7695 49.2959 16.7578 49.5654 16.7578 49.8701C16.7578 50.6201 16.875 51.2822 17.1094 51.8564C17.3438 52.4306 17.6719 52.917 18.0938 53.3154C18.5156 53.7138 19.0195 54.0302 19.6055 54.2646C20.1797 54.4873 20.8125 54.6338 21.5039 54.7041L22.0313 55.6181C20.8828 55.6181 19.8047 55.5068 18.7969 55.2841C17.7891 55.0498 16.8984 54.6923 16.125 54.2119C15.3398 53.7314 14.7305 53.122 14.2969 52.3838C13.8516 51.6338 13.6289 50.7431 13.6289 49.7119C13.6289 49.4775 13.6582 49.208 13.7168 48.9033C13.7637 48.5986 13.8164 48.3877 13.875 48.2705ZM17.7598 26.5502H33V29.8198H13.9805V26.726L17.7598 26.5502ZM22.7695 27.2182L22.7168 28.7299C21.416 28.7182 20.2148 28.5483 19.1133 28.2202C18 27.892 17.0332 27.4057 16.2129 26.7612C15.3926 26.1166 14.7598 25.3139 14.3145 24.353C13.8574 23.392 13.6289 22.2787 13.6289 21.0131C13.6289 20.1225 13.7578 19.3022 14.0156 18.5522C14.2617 17.8022 14.6543 17.1518 15.1934 16.601C15.7324 16.0502 16.4238 15.6225 17.2676 15.3178C18.1113 15.0131 19.1309 14.8608 20.3262 14.8608H33V18.1127H20.4844C19.4883 18.1127 18.6914 18.2827 18.0938 18.6225C17.4961 18.9506 17.0625 19.4194 16.793 20.0287C16.5117 20.6381 16.3711 21.353 16.3711 22.1733C16.3711 23.1342 16.541 23.937 16.8809 24.5815C17.2207 25.226 17.6895 25.7416 18.2871 26.1284C18.8848 26.5151 19.5703 26.7963 20.3438 26.9721C21.1055 27.1362 21.9141 27.2182 22.7695 27.2182ZM20.9766 14.8959L21.6445 17.0756C20.6016 17.0639 19.5996 16.894 18.6387 16.5659C17.6777 16.226 16.8223 15.7397 16.0723 15.1069C15.3223 14.4623 14.7305 13.6713 14.2969 12.7338C13.8516 11.7963 13.6289 10.7241 13.6289 9.51703C13.6289 8.4975 13.7637 7.59515 14.0332 6.81C14.3027 6.01312 14.7188 5.34515 15.2813 4.80609C15.832 4.25531 16.541 3.83929 17.4082 3.55804C18.2754 3.27679 19.3066 3.13617 20.502 3.13617H33V6.4057H20.4668C19.4004 6.4057 18.5742 6.57562 17.9883 6.91547C17.3906 7.24359 16.9746 7.71234 16.7402 8.32172C16.4941 8.91937 16.3711 9.63422 16.3711 10.4662C16.3711 11.1811 16.4941 11.8139 16.7402 12.3647C16.9863 12.9155 17.3262 13.3784 17.7598 13.7534C18.1816 14.1284 18.668 14.4155 19.2188 14.6147C19.7695 14.8022 20.3555 14.8959 20.9766 14.8959Z" fill="black"/>
</svg>
