<svg width="42" height="122" viewBox="0 0 42 122" fill="none" xmlns="http://www.w3.org/2000/svg">
<path d="M33 114.67V117.922H11.9766C10.6055 117.922 9.45117 117.676 8.51367 117.184C7.56445 116.68 6.84961 115.959 6.36914 115.021C5.87695 114.084 5.63086 112.971 5.63086 111.682C5.63086 111.307 5.6543 110.932 5.70117 110.557C5.74805 110.17 5.81836 109.795 5.91211 109.432L8.56641 109.607C8.50781 109.854 8.4668 110.135 8.44336 110.451C8.41992 110.756 8.4082 111.061 8.4082 111.365C8.4082 112.057 8.54883 112.654 8.83008 113.158C9.09961 113.65 9.49805 114.025 10.0254 114.283C10.5527 114.541 11.2031 114.67 11.9766 114.67H33ZM13.9805 110.627H16.4766V120.928H13.9805V110.627ZM29.748 92.911H19.957C19.207 92.911 18.5566 93.0634 18.0059 93.368C17.4434 93.661 17.0098 94.1063 16.7051 94.704C16.4004 95.3016 16.248 96.0399 16.248 96.9188C16.248 97.7391 16.3887 98.4598 16.6699 99.0809C16.9512 99.6903 17.3203 100.171 17.7773 100.522C18.2344 100.862 18.7266 101.032 19.2539 101.032V104.284C18.5742 104.284 17.9004 104.108 17.2324 103.757C16.5645 103.405 15.9609 102.901 15.4219 102.245C14.8711 101.577 14.4375 100.78 14.1211 99.8544C13.793 98.9169 13.6289 97.8739 13.6289 96.7255C13.6289 95.3427 13.8633 94.1239 14.332 93.0692C14.8008 92.0028 15.5098 91.1708 16.459 90.5731C17.3965 89.9637 18.5742 89.6591 19.9922 89.6591H28.8516C29.4844 89.6591 30.1582 89.6063 30.873 89.5009C31.5879 89.3837 32.2031 89.2137 32.7188 88.9911H33V92.3837C32.625 92.5477 32.127 92.6766 31.5059 92.7704C30.873 92.8641 30.2871 92.911 29.748 92.911ZM21.4688 92.3485L23.7539 92.3134L23.7539 95.6005C23.7539 96.5262 23.8301 97.3524 23.9824 98.079C24.123 98.8055 24.3398 99.4149 24.6328 99.9071C24.9258 100.399 25.2949 100.774 25.7402 101.032C26.1738 101.29 26.6836 101.419 27.2695 101.419C27.8672 101.419 28.4121 101.284 28.9043 101.015C29.3965 100.745 29.7891 100.341 30.082 99.8016C30.3633 99.2509 30.5039 98.577 30.5039 97.7802C30.5039 96.7841 30.293 95.9052 29.8711 95.1434C29.4492 94.3817 28.9336 93.7782 28.3242 93.3329C27.7148 92.8759 27.123 92.6298 26.5488 92.5946L28.1133 91.2059C28.6055 91.288 29.1504 91.5106 29.748 91.8739C30.3457 92.2372 30.9199 92.7235 31.4707 93.3329C32.0098 93.9305 32.4609 94.6454 32.8242 95.4774C33.1758 96.2977 33.3516 97.2235 33.3516 98.2548C33.3516 99.5438 33.0996 100.675 32.5957 101.647C32.0918 102.608 31.418 103.358 30.5742 103.897C29.7188 104.425 28.7637 104.688 27.709 104.688C26.6895 104.688 25.793 104.489 25.0195 104.091C24.2344 103.692 23.584 103.118 23.0684 102.368C22.541 101.618 22.1426 100.716 21.873 99.661C21.6035 98.6063 21.4688 97.4286 21.4688 96.1278L21.4688 92.3485ZM16.9688 78.4119H33V81.6638H13.9805V78.4998L16.9688 78.4119ZM13.875 72.4705L16.8984 72.488C16.8398 72.7576 16.8047 73.0154 16.793 73.2615C16.7695 73.4959 16.7578 73.7654 16.7578 74.0701C16.7578 74.8201 16.875 75.4822 17.1094 76.0564C17.3438 76.6306 17.6719 77.117 18.0938 77.5154C18.5156 77.9138 19.0195 78.2302 19.6055 78.4646C20.1797 78.6873 20.8125 78.8337 21.5039 78.9041L22.0313 79.8181C20.8828 79.8181 19.8047 79.7068 18.7969 79.4841C17.7891 79.2498 16.8984 78.8923 16.125 78.4119C15.3398 77.9314 14.7305 77.322 14.2969 76.5837C13.8516 75.8337 13.6289 74.9431 13.6289 73.9119C13.6289 73.6775 13.6582 73.408 13.7168 73.1033C13.7637 72.7986 13.8164 72.5877 13.875 72.4705ZM17.7598 63.3502H33L33 66.6198H13.9805V63.526L17.7598 63.3502ZM22.7695 64.0182L22.7168 65.5299C21.416 65.5182 20.2148 65.3483 19.1133 65.0202C18 64.692 17.0332 64.2057 16.2129 63.5612C15.3926 62.9166 14.7598 62.1139 14.3145 61.153C13.8574 60.192 13.6289 59.0788 13.6289 57.8131C13.6289 56.9225 13.7578 56.1022 14.0156 55.3522C14.2617 54.6022 14.6543 53.9518 15.1934 53.401C15.7324 52.8502 16.4238 52.4225 17.2676 52.1178C18.1113 51.8131 19.1309 51.6608 20.3262 51.6608H33V54.9127H20.4844C19.4883 54.9127 18.6914 55.0827 18.0938 55.4225C17.4961 55.7506 17.0625 56.2194 16.793 56.8288C16.5117 57.4381 16.3711 58.153 16.3711 58.9733C16.3711 59.9342 16.541 60.737 16.8809 61.3815C17.2207 62.026 17.6895 62.5416 18.2871 62.9284C18.8848 63.3151 19.5703 63.5963 20.3438 63.7721C21.1055 63.9362 21.9141 64.0182 22.7695 64.0182ZM20.9766 51.6959L21.6445 53.8756C20.6016 53.8639 19.5996 53.694 18.6387 53.3659C17.6777 53.026 16.8223 52.5397 16.0723 51.9069C15.3223 51.2623 14.7305 50.4713 14.2969 49.5338C13.8516 48.5963 13.6289 47.5241 13.6289 46.317C13.6289 45.2975 13.7637 44.3952 14.0332 43.61C14.3027 42.8131 14.7188 42.1452 15.2813 41.6061C15.832 41.0553 16.541 40.6393 17.4082 40.358C18.2754 40.0768 19.3066 39.9362 20.502 39.9362H33V43.2057H20.4668C19.4004 43.2057 18.5742 43.3756 17.9883 43.7155C17.3906 44.0436 16.9746 44.5123 16.7402 45.1217C16.4941 45.7194 16.3711 46.4342 16.3711 47.2663C16.3711 47.9811 16.4941 48.6139 16.7402 49.1647C16.9863 49.7155 17.3262 50.1784 17.7598 50.5534C18.1816 50.9284 18.668 51.2155 19.2188 51.4147C19.7695 51.6022 20.3555 51.6959 20.9766 51.6959ZM33.3516 24.2417C33.3516 25.5659 33.1289 26.7671 32.6836 27.8452C32.2266 28.9116 31.5879 29.8316 30.7676 30.605C29.9473 31.3667 28.9746 31.9527 27.8496 32.3628C26.7246 32.773 25.4941 32.978 24.1582 32.978H23.4199C21.873 32.978 20.4961 32.7495 19.2891 32.2925C18.0703 31.8355 17.0391 31.2144 16.1953 30.4292C15.3516 29.6441 14.7129 28.7534 14.2793 27.7573C13.8457 26.7612 13.6289 25.73 13.6289 24.6636C13.6289 23.3042 13.8633 22.1323 14.332 21.148C14.8008 20.1519 15.457 19.3374 16.3008 18.7046C17.1328 18.0718 18.1172 17.603 19.2539 17.2984C20.3789 16.9937 21.6094 16.8413 22.9453 16.8413H24.4043V31.0444H21.75V20.0933H21.5039C20.6602 20.1402 19.8398 20.3159 19.043 20.6206C18.2461 20.9136 17.5898 21.3823 17.0742 22.0269C16.5586 22.6714 16.3008 23.5503 16.3008 24.6636C16.3008 25.4019 16.459 26.0816 16.7754 26.7027C17.0801 27.3237 17.5371 27.8569 18.1465 28.3023C18.7559 28.7476 19.5 29.0933 20.3789 29.3394C21.2578 29.5855 22.2715 29.7085 23.4199 29.7085H24.1582C25.0605 29.7085 25.9102 29.5855 26.707 29.3394C27.4922 29.0816 28.1836 28.7124 28.7813 28.2319C29.3789 27.7398 29.8477 27.148 30.1875 26.4566C30.5273 25.7534 30.6973 24.9566 30.6973 24.0659C30.6973 22.9175 30.4629 21.9448 29.9941 21.148C29.5254 20.3511 28.8984 19.6538 28.1133 19.0562L29.6777 17.0874C30.2988 17.4976 30.8906 18.0191 31.4531 18.6519C32.0156 19.2847 32.4727 20.064 32.8242 20.9898C33.1758 21.9038 33.3516 22.9878 33.3516 24.2417ZM16.9688 6.9125H33V10.1645H13.9805V7.00039L16.9688 6.9125ZM13.875 0.971092L16.8984 0.98867C16.8398 1.2582 16.8047 1.51601 16.793 1.76211C16.7695 1.99648 16.7578 2.26601 16.7578 2.5707C16.7578 3.3207 16.875 3.98281 17.1094 4.55703C17.3438 5.13125 17.6719 5.61758 18.0938 6.01601C18.5156 6.41445 19.0195 6.73086 19.6055 6.96523C20.1797 7.18789 20.8125 7.33437 21.5039 7.40469L22.0313 8.31875C20.8828 8.31875 19.8047 8.20742 18.7969 7.98476C17.7891 7.75039 16.8984 7.39297 16.125 6.9125C15.3398 6.43203 14.7305 5.82265 14.2969 5.08437C13.8516 4.33437 13.6289 3.44375 13.6289 2.4125C13.6289 2.17812 13.6582 1.90859 13.7168 1.6039C13.7637 1.29922 13.8164 1.08828 13.875 0.971092Z" fill="black"/>
</svg>
