<svg width="129" height="42" viewBox="0 0 129 42" fill="none" xmlns="http://www.w3.org/2000/svg">
<path d="M5.73047 17.6367V40.3125H2.46094V13.9805H5.44922L5.73047 17.6367ZM18.5449 23.332V23.7012C18.5449 25.084 18.3809 26.3672 18.0527 27.5508C17.7246 28.7227 17.2441 29.7422 16.6113 30.6094C15.9902 31.4766 15.2227 32.1504 14.3086 32.6309C13.3945 33.1113 12.3457 33.3516 11.1621 33.3516C9.95508 33.3516 8.88867 33.1523 7.96289 32.7539C7.03711 32.3555 6.25195 31.7754 5.60742 31.0137C4.96289 30.252 4.44727 29.3379 4.06055 28.2715C3.68555 27.2051 3.42773 26.0039 3.28711 24.668V22.6992C3.42773 21.293 3.69141 20.0332 4.07812 18.9199C4.46484 17.8066 4.97461 16.8574 5.60742 16.0723C6.25195 15.2754 7.03125 14.6719 7.94531 14.2617C8.85938 13.8398 9.91406 13.6289 11.1094 13.6289C12.3047 13.6289 13.3652 13.8633 14.291 14.332C15.2168 14.7891 15.9961 15.4453 16.6289 16.3008C17.2617 17.1562 17.7363 18.1816 18.0527 19.377C18.3809 20.5605 18.5449 21.8789 18.5449 23.332ZM15.2754 23.7012V23.332C15.2754 22.3828 15.1758 21.4922 14.9766 20.6602C14.7773 19.8164 14.4668 19.0781 14.0449 18.4453C13.6348 17.8008 13.1074 17.2969 12.4629 16.9336C11.8184 16.5586 11.0508 16.3711 10.1602 16.3711C9.33984 16.3711 8.625 16.5117 8.01562 16.793C7.41797 17.0742 6.9082 17.4551 6.48633 17.9355C6.06445 18.4043 5.71875 18.9434 5.44922 19.5527C5.19141 20.1504 4.99805 20.7715 4.86914 21.416V25.9688C5.10352 26.7891 5.43164 27.5625 5.85352 28.2891C6.27539 29.0039 6.83789 29.584 7.54102 30.0293C8.24414 30.4629 9.12891 30.6797 10.1953 30.6797C11.0742 30.6797 11.8301 30.498 12.4629 30.1348C13.1074 29.7598 13.6348 29.25 14.0449 28.6055C14.4668 27.9609 14.7773 27.2227 14.9766 26.3906C15.1758 25.5469 15.2754 24.6504 15.2754 23.7012ZM25.1466 6V33H21.877V6H25.1466ZM40.5021 29.748V19.957C40.5021 19.207 40.3498 18.5566 40.0451 18.0059C39.7521 17.4434 39.3068 17.0098 38.7091 16.7051C38.1115 16.4004 37.3732 16.248 36.4943 16.248C35.674 16.248 34.9533 16.3887 34.3322 16.6699C33.7228 16.9512 33.2423 17.3203 32.8908 17.7773C32.5509 18.2344 32.381 18.7266 32.381 19.2539H29.1291C29.1291 18.5742 29.3048 17.9004 29.6564 17.2324C30.008 16.5645 30.5119 15.9609 31.1681 15.4219C31.8361 14.8711 32.633 14.4375 33.5588 14.1211C34.4963 13.793 35.5392 13.6289 36.6877 13.6289C38.0705 13.6289 39.2892 13.8633 40.3439 14.332C41.4103 14.8008 42.2423 15.5098 42.84 16.459C43.4494 17.3965 43.7541 18.5742 43.7541 19.9922V28.8516C43.7541 29.4844 43.8068 30.1582 43.9123 30.873C44.0295 31.5879 44.1994 32.2031 44.422 32.7188V33H41.0295C40.8654 32.625 40.7365 32.127 40.6427 31.5059C40.549 30.873 40.5021 30.2871 40.5021 29.748ZM41.0646 21.4688L41.0998 23.7539H37.8127C36.8869 23.7539 36.0607 23.8301 35.3341 23.9824C34.6076 24.123 33.9982 24.3398 33.506 24.6328C33.0138 24.9258 32.6388 25.2949 32.381 25.7402C32.1232 26.1738 31.9943 26.6836 31.9943 27.2695C31.9943 27.8672 32.1291 28.4121 32.3986 28.9043C32.6681 29.3965 33.0724 29.7891 33.6115 30.082C34.1623 30.3633 34.8361 30.5039 35.633 30.5039C36.6291 30.5039 37.508 30.293 38.2697 29.8711C39.0314 29.4492 39.6349 28.9336 40.0802 28.3242C40.5373 27.7148 40.7834 27.123 40.8185 26.5488L42.2072 28.1133C42.1252 28.6055 41.9025 29.1504 41.5392 29.748C41.1759 30.3457 40.6896 30.9199 40.0802 31.4707C39.4826 32.0098 38.7677 32.4609 37.9357 32.8242C37.1154 33.1758 36.1896 33.3516 35.1584 33.3516C33.8693 33.3516 32.7384 33.0996 31.7658 32.5957C30.8048 32.0918 30.0548 31.418 29.5158 30.5742C28.9884 29.7188 28.7248 28.7637 28.7248 27.709C28.7248 26.6895 28.924 25.793 29.3224 25.0195C29.7209 24.2344 30.2951 23.584 31.0451 23.0684C31.7951 22.541 32.6974 22.1426 33.7521 21.873C34.8068 21.6035 35.9845 21.4688 37.2853 21.4688H41.0646ZM52.8518 31.0312L58.1428 13.9805H61.6233L53.9944 35.9355C53.8186 36.4043 53.5842 36.9082 53.2912 37.4473C53.01 37.998 52.6467 38.5195 52.2014 39.0117C51.7561 39.5039 51.217 39.9023 50.5842 40.207C49.9631 40.5234 49.219 40.6816 48.3518 40.6816C48.094 40.6816 47.7659 40.6465 47.3674 40.5762C46.969 40.5059 46.6877 40.4473 46.5237 40.4004L46.5061 37.7637C46.5998 37.7754 46.7463 37.7871 46.9455 37.7988C47.1565 37.8223 47.303 37.834 47.385 37.834C48.1233 37.834 48.7502 37.7344 49.2659 37.5352C49.7815 37.3477 50.2151 37.0254 50.5666 36.5684C50.9299 36.123 51.2405 35.5078 51.4983 34.7227L52.8518 31.0312ZM48.967 13.9805L53.9065 28.7461L54.7502 32.1738L52.4123 33.3691L45.4162 13.9805H48.967ZM71.4417 13.9805V16.4766H61.1585V13.9805H71.4417ZM64.639 9.35742H67.8909V28.2891C67.8909 28.9336 67.9905 29.4199 68.1898 29.748C68.389 30.0762 68.6468 30.293 68.9632 30.3984C69.2796 30.5039 69.6195 30.5566 69.9827 30.5566C70.2523 30.5566 70.5335 30.5332 70.8265 30.4863C71.1312 30.4277 71.3597 30.3809 71.512 30.3457L71.5296 33C71.2718 33.082 70.932 33.1582 70.5101 33.2285C70.0999 33.3105 69.6019 33.3516 69.0159 33.3516C68.2191 33.3516 67.4866 33.1934 66.8187 32.877C66.1507 32.5605 65.6175 32.0332 65.2191 31.2949C64.8323 30.5449 64.639 29.5371 64.639 28.2715V9.35742ZM77.7094 13.9805V33H74.4398V13.9805H77.7094ZM74.1937 8.93555C74.1937 8.4082 74.352 7.96289 74.6684 7.59961C74.9965 7.23633 75.477 7.05469 76.1098 7.05469C76.7309 7.05469 77.2055 7.23633 77.5336 7.59961C77.8734 7.96289 78.0434 8.4082 78.0434 8.93555C78.0434 9.43945 77.8734 9.87305 77.5336 10.2363C77.2055 10.5879 76.7309 10.7637 76.1098 10.7637C75.477 10.7637 74.9965 10.5879 74.6684 10.2363C74.352 9.87305 74.1937 9.43945 74.1937 8.93555ZM85.0844 17.7598V33H81.8149V13.9805H84.9087L85.0844 17.7598ZM84.4165 22.7695L82.9048 22.7168C82.9165 21.416 83.0864 20.2148 83.4145 19.1133C83.7427 18 84.229 17.0332 84.8735 16.2129C85.518 15.3926 86.3208 14.7598 87.2817 14.3145C88.2427 13.8574 89.3559 13.6289 90.6216 13.6289C91.5122 13.6289 92.3325 13.7578 93.0825 14.0156C93.8325 14.2617 94.4829 14.6543 95.0337 15.1934C95.5844 15.7324 96.0122 16.4238 96.3169 17.2676C96.6216 18.1113 96.7739 19.1309 96.7739 20.3262V33H93.5219V20.4844C93.5219 19.4883 93.352 18.6914 93.0122 18.0938C92.6841 17.4961 92.2153 17.0625 91.6059 16.793C90.9966 16.5117 90.2817 16.3711 89.4614 16.3711C88.5005 16.3711 87.6977 16.541 87.0532 16.8809C86.4087 17.2207 85.893 17.6895 85.5063 18.2871C85.1196 18.8848 84.8384 19.5703 84.6626 20.3438C84.4985 21.1055 84.4165 21.9141 84.4165 22.7695ZM96.7387 20.9766L94.5591 21.6445C94.5708 20.6016 94.7407 19.5996 95.0688 18.6387C95.4087 17.6777 95.895 16.8223 96.5278 16.0723C97.1723 15.3223 97.9634 14.7305 98.9009 14.2969C99.8384 13.8516 100.911 13.6289 102.118 13.6289C103.137 13.6289 104.04 13.7637 104.825 14.0332C105.622 14.3027 106.29 14.7188 106.829 15.2812C107.379 15.832 107.795 16.541 108.077 17.4082C108.358 18.2754 108.499 19.3066 108.499 20.502V33H105.229V20.4668C105.229 19.4004 105.059 18.5742 104.719 17.9883C104.391 17.3906 103.922 16.9746 103.313 16.7402C102.715 16.4941 102 16.3711 101.168 16.3711C100.454 16.3711 99.8208 16.4941 99.27 16.7402C98.7192 16.9863 98.2563 17.3262 97.8813 17.7598C97.5063 18.1816 97.2192 18.668 97.02 19.2188C96.8325 19.7695 96.7387 20.3555 96.7387 20.9766ZM120.233 33.3516C118.909 33.3516 117.708 33.1289 116.629 32.6836C115.563 32.2266 114.643 31.5879 113.87 30.7676C113.108 29.9473 112.522 28.9746 112.112 27.8496C111.702 26.7246 111.497 25.4941 111.497 24.1582V23.4199C111.497 21.873 111.725 20.4961 112.182 19.2891C112.639 18.0703 113.26 17.0391 114.045 16.1953C114.831 15.3516 115.721 14.7129 116.717 14.2793C117.713 13.8457 118.745 13.6289 119.811 13.6289C121.17 13.6289 122.342 13.8633 123.327 14.332C124.323 14.8008 125.137 15.457 125.77 16.3008C126.403 17.1328 126.872 18.1172 127.176 19.2539C127.481 20.3789 127.633 21.6094 127.633 22.9453V24.4043H113.43V21.75H124.381V21.5039C124.335 20.6602 124.159 19.8398 123.854 19.043C123.561 18.2461 123.092 17.5898 122.448 17.0742C121.803 16.5586 120.924 16.3008 119.811 16.3008C119.073 16.3008 118.393 16.459 117.772 16.7754C117.151 17.0801 116.618 17.5371 116.172 18.1465C115.727 18.7559 115.381 19.5 115.135 20.3789C114.889 21.2578 114.766 22.2715 114.766 23.4199V24.1582C114.766 25.0605 114.889 25.9102 115.135 26.707C115.393 27.4922 115.762 28.1836 116.243 28.7812C116.735 29.3789 117.327 29.8477 118.018 30.1875C118.721 30.5273 119.518 30.6973 120.409 30.6973C121.557 30.6973 122.53 30.4629 123.327 29.9941C124.124 29.5254 124.821 28.8984 125.419 28.1133L127.387 29.6777C126.977 30.2988 126.456 30.8906 125.823 31.4531C125.19 32.0156 124.411 32.4727 123.485 32.8242C122.571 33.1758 121.487 33.3516 120.233 33.3516Z" fill="black"/>
</svg>
