<svg width="129" height="42" viewBox="0 0 129 42" fill="none" xmlns="http://www.w3.org/2000/svg">
<path d="M7.82227 31.0312L13.1133 13.9805H16.5938L8.96484 35.9355C8.78906 36.4043 8.55469 36.9082 8.26172 37.4473C7.98047 37.998 7.61719 38.5195 7.17188 39.0117C6.72656 39.5039 6.1875 39.9023 5.55469 40.207C4.93359 40.5234 4.18945 40.6816 3.32227 40.6816C3.06445 40.6816 2.73633 40.6465 2.33789 40.5762C1.93945 40.5059 1.6582 40.4473 1.49414 40.4004L1.47656 37.7637C1.57031 37.7754 1.7168 37.7871 1.91602 37.7988C2.12695 37.8223 2.27344 37.834 2.35547 37.834C3.09375 37.834 3.7207 37.7344 4.23633 37.5352C4.75195 37.3477 5.18555 37.0254 5.53711 36.5684C5.90039 36.123 6.21094 35.5078 6.46875 34.7227L7.82227 31.0312ZM3.9375 13.9805L8.87695 28.7461L9.7207 32.1738L7.38281 33.3691L0.386719 13.9805H3.9375ZM37.6158 33.3516C36.2916 33.3516 35.0904 33.1289 34.0123 32.6836C32.9459 32.2266 32.0259 31.5879 31.2525 30.7676C30.4908 29.9473 29.9048 28.9746 29.4947 27.8496C29.0845 26.7246 28.8795 25.4941 28.8795 24.1582V23.4199C28.8795 21.873 29.108 20.4961 29.565 19.2891C30.022 18.0703 30.6431 17.0391 31.4283 16.1953C32.2134 15.3516 33.1041 14.7129 34.1002 14.2793C35.0962 13.8457 36.1275 13.6289 37.1939 13.6289C38.5533 13.6289 39.7252 13.8633 40.7095 14.332C41.7056 14.8008 42.5201 15.457 43.1529 16.3008C43.7857 17.1328 44.2545 18.1172 44.5591 19.2539C44.8638 20.3789 45.0162 21.6094 45.0162 22.9453V24.4043H30.813V21.75H41.7642V21.5039C41.7173 20.6602 41.5416 19.8398 41.2369 19.043C40.9439 18.2461 40.4752 17.5898 39.8306 17.0742C39.1861 16.5586 38.3072 16.3008 37.1939 16.3008C36.4556 16.3008 35.7759 16.459 35.1548 16.7754C34.5337 17.0801 34.0005 17.5371 33.5552 18.1465C33.1099 18.7559 32.7642 19.5 32.5181 20.3789C32.272 21.2578 32.149 22.2715 32.149 23.4199V24.1582C32.149 25.0605 32.272 25.9102 32.5181 26.707C32.7759 27.4922 33.1451 28.1836 33.6255 28.7812C34.1177 29.3789 34.7095 29.8477 35.4009 30.1875C36.1041 30.5273 36.9009 30.6973 37.7916 30.6973C38.94 30.6973 39.9127 30.4629 40.7095 29.9941C41.5064 29.5254 42.2037 28.8984 42.8013 28.1133L44.7701 29.6777C44.3599 30.2988 43.8384 30.8906 43.2056 31.4531C42.5728 32.0156 41.7935 32.4727 40.8677 32.8242C39.9537 33.1758 38.8697 33.3516 37.6158 33.3516ZM70.4679 29.748V19.957C70.4679 19.207 70.3155 18.5566 70.0109 18.0059C69.7179 17.4434 69.2726 17.0098 68.6749 16.7051C68.0773 16.4004 67.339 16.248 66.4601 16.248C65.6398 16.248 64.9191 16.3887 64.298 16.6699C63.6886 16.9512 63.2081 17.3203 62.8566 17.7773C62.5167 18.2344 62.3468 18.7266 62.3468 19.2539H59.0948C59.0948 18.5742 59.2706 17.9004 59.6222 17.2324C59.9737 16.5645 60.4777 15.9609 61.1339 15.4219C61.8019 14.8711 62.5987 14.4375 63.5245 14.1211C64.462 13.793 65.505 13.6289 66.6534 13.6289C68.0362 13.6289 69.255 13.8633 70.3097 14.332C71.3761 14.8008 72.2081 15.5098 72.8058 16.459C73.4152 17.3965 73.7198 18.5742 73.7198 19.9922V28.8516C73.7198 29.4844 73.7726 30.1582 73.878 30.873C73.9952 31.5879 74.1652 32.2031 74.3878 32.7188V33H70.9952C70.8312 32.625 70.7023 32.127 70.6085 31.5059C70.5148 30.873 70.4679 30.2871 70.4679 29.748ZM71.0304 21.4688L71.0655 23.7539H67.7784C66.8527 23.7539 66.0265 23.8301 65.2999 23.9824C64.5734 24.123 63.964 24.3398 63.4718 24.6328C62.9796 24.9258 62.6046 25.2949 62.3468 25.7402C62.089 26.1738 61.9601 26.6836 61.9601 27.2695C61.9601 27.8672 62.0948 28.4121 62.3644 28.9043C62.6339 29.3965 63.0382 29.7891 63.5773 30.082C64.128 30.3633 64.8019 30.5039 65.5987 30.5039C66.5948 30.5039 67.4737 30.293 68.2355 29.8711C68.9972 29.4492 69.6007 28.9336 70.046 28.3242C70.503 27.7148 70.7491 27.123 70.7843 26.5488L72.173 28.1133C72.0909 28.6055 71.8683 29.1504 71.505 29.748C71.1417 30.3457 70.6554 30.9199 70.046 31.4707C69.4484 32.0098 68.7335 32.4609 67.9015 32.8242C67.0812 33.1758 66.1554 33.3516 65.1241 33.3516C63.8351 33.3516 62.7042 33.0996 61.7316 32.5957C60.7706 32.0918 60.0206 31.418 59.4816 30.5742C58.9542 29.7188 58.6905 28.7637 58.6905 27.709C58.6905 26.6895 58.8898 25.793 59.2882 25.0195C59.6866 24.2344 60.2609 23.584 61.0109 23.0684C61.7609 22.541 62.6632 22.1426 63.7179 21.873C64.7726 21.6035 65.9503 21.4688 67.2511 21.4688H71.0304ZM92.527 16.9688V33H89.2751V13.9805H92.4391L92.527 16.9688ZM98.4684 13.875L98.4509 16.8984C98.1813 16.8398 97.9235 16.8047 97.6774 16.793C97.443 16.7695 97.1735 16.7578 96.8688 16.7578C96.1188 16.7578 95.4567 16.875 94.8825 17.1094C94.3083 17.3438 93.822 17.6719 93.4235 18.0938C93.0251 18.5156 92.7087 19.0195 92.4743 19.6055C92.2516 20.1797 92.1052 20.8125 92.0348 21.5039L91.1208 22.0312C91.1208 20.8828 91.2321 19.8047 91.4548 18.7969C91.6891 17.7891 92.0466 16.8984 92.527 16.125C93.0075 15.3398 93.6169 14.7305 94.3552 14.2969C95.1052 13.8516 95.9958 13.6289 97.027 13.6289C97.2614 13.6289 97.5309 13.6582 97.8356 13.7168C98.1403 13.7637 98.3512 13.8164 98.4684 13.875ZM122.989 27.9551C122.989 27.4863 122.883 27.0527 122.672 26.6543C122.473 26.2441 122.057 25.875 121.424 25.5469C120.803 25.207 119.865 24.9141 118.612 24.668C117.557 24.4453 116.602 24.1816 115.746 23.877C114.903 23.5723 114.182 23.2031 113.584 22.7695C112.998 22.3359 112.547 21.8262 112.231 21.2402C111.914 20.6543 111.756 19.9688 111.756 19.1836C111.756 18.4336 111.92 17.7246 112.248 17.0566C112.588 16.3887 113.063 15.7969 113.672 15.2812C114.293 14.7656 115.037 14.3613 115.905 14.0684C116.772 13.7754 117.739 13.6289 118.805 13.6289C120.328 13.6289 121.629 13.8984 122.707 14.4375C123.785 14.9766 124.612 15.6973 125.186 16.5996C125.76 17.4902 126.047 18.4805 126.047 19.5703H122.795C122.795 19.043 122.637 18.5332 122.321 18.041C122.016 17.5371 121.565 17.1211 120.967 16.793C120.381 16.4648 119.66 16.3008 118.805 16.3008C117.903 16.3008 117.17 16.4414 116.608 16.7227C116.057 16.9922 115.653 17.3379 115.395 17.7598C115.149 18.1816 115.026 18.627 115.026 19.0957C115.026 19.4473 115.084 19.7637 115.201 20.0449C115.33 20.3145 115.553 20.5664 115.869 20.8008C116.186 21.0234 116.631 21.2344 117.205 21.4336C117.78 21.6328 118.512 21.832 119.403 22.0312C120.961 22.3828 122.244 22.8047 123.252 23.2969C124.26 23.7891 125.01 24.3926 125.502 25.1074C125.994 25.8223 126.24 26.6895 126.24 27.709C126.24 28.541 126.065 29.3027 125.713 29.9941C125.373 30.6855 124.875 31.2832 124.219 31.7871C123.574 32.2793 122.801 32.666 121.899 32.9473C121.008 33.2168 120.006 33.3516 118.893 33.3516C117.217 33.3516 115.799 33.0527 114.639 32.4551C113.479 31.8574 112.6 31.084 112.002 30.1348C111.405 29.1855 111.106 28.1836 111.106 27.1289H114.375C114.422 28.0195 114.68 28.7285 115.149 29.2559C115.617 29.7715 116.192 30.1406 116.871 30.3633C117.551 30.5742 118.225 30.6797 118.893 30.6797C119.783 30.6797 120.528 30.5625 121.125 30.3281C121.735 30.0938 122.197 29.7715 122.514 29.3613C122.83 28.9512 122.989 28.4824 122.989 27.9551Z" fill="black"/>
</svg>
