<svg xmlns="http://www.w3.org/2000/svg" viewBox="0 -0.5 72 72" width="96" height="96" shape-rendering="crispEdges">
<path stroke="#000000" d="M36 4h20M36 5h20M36 6h20M36 7h20M28 8h8M40 8h4M56 8h4M28 9h8M40 9h4M56 9h4M28 10h8M40 10h4M56 10h4M28 11h8M40 11h4M56 11h4M20 12h8M52 12h8M20 13h8M52 13h8M20 14h8M52 14h8M20 15h8M52 15h8M16 16h4M24 16h4M52 16h4M16 17h4M24 17h4M52 17h4M16 18h4M24 18h4M52 18h4M16 19h4M24 19h4M52 19h4M16 20h4M48 20h8M16 21h4M48 21h8M16 22h4M48 22h8M16 23h4M48 23h8M12 24h4M48 24h4M12 25h4M48 25h4M12 26h4M48 26h4M12 27h4M48 27h4M12 28h4M44 28h8M12 29h4M44 29h8M12 30h4M44 30h8M12 31h4M44 31h8M12 32h4M48 32h4M12 33h4M48 33h4M12 34h4M48 34h4M12 35h4M48 35h4M16 36h4M36 36h12M16 37h4M36 37h12M16 38h4M36 38h12M16 39h4M36 39h12M12 40h4M24 40h4M44 40h4M12 41h4M24 41h4M44 41h4M12 42h4M24 42h4M44 42h4M12 43h4M24 43h4M44 43h4M8 44h4M20 44h4M28 44h16M8 45h4M20 45h4M28 45h16M8 46h4M20 46h4M28 46h16M8 47h4M20 47h4M28 47h16M8 48h4M16 48h4M8 49h4M16 49h4M8 50h4M16 50h4M8 51h4M16 51h4M8 52h4M16 52h4M8 53h4M16 53h4M8 54h4M16 54h4M8 55h4M16 55h4M8 56h4M20 56h4M8 57h4M20 57h4M8 58h4M20 58h4M8 59h4M20 59h4M12 60h12M12 61h12M12 62h12M12 63h12" />
<path stroke="#ff887e" d="M36 8h4M48 8h4M36 9h4M48 9h4M36 10h4M48 10h4M36 11h4M48 11h4M48 16h4M48 17h4M48 18h4M48 19h4" />
<path stroke="#dd4767" d="M44 8h4M44 9h4M44 10h4M44 11h4M36 16h4M36 17h4M36 18h4M36 19h4M20 20h4M28 20h8M20 21h4M28 21h8M20 22h4M28 22h8M20 23h4M28 23h8M16 24h4M24 24h4M36 24h4M16 25h4M24 25h4M36 25h4M16 26h4M24 26h4M36 26h4M16 27h4M24 27h4M36 27h4M36 32h4M36 33h4M36 34h4M36 35h4M32 40h8M32 41h8M32 42h8M32 43h8" />
<path stroke="#f6695d" d="M52 8h4M52 9h4M52 10h4M52 11h4M28 12h4M36 12h4M44 12h4M28 13h4M36 13h4M44 13h4M28 14h4M36 14h4M44 14h4M28 15h4M36 15h4M44 15h4M20 16h4M28 16h4M40 16h8M20 17h4M28 17h4M40 17h8M20 18h4M28 18h4M40 18h8M20 19h4M28 19h4M40 19h8M40 24h8M40 25h8M40 26h8M40 27h8M40 32h8M40 33h8M40 34h8M40 35h8" />
<path stroke="#7f274d" d="M32 12h4M48 12h4M32 13h4M48 13h4M32 14h4M48 14h4M32 15h4M48 15h4M44 20h4M44 21h4M44 22h4M44 23h4M20 24h4M28 24h4M20 25h4M28 25h4M20 26h4M28 26h4M20 27h4M28 27h4M20 28h4M28 28h8M40 28h4M20 29h4M28 29h8M40 29h4M20 30h4M28 30h8M40 30h4M20 31h4M28 31h8M40 31h4M16 32h4M24 32h8M16 33h4M24 33h8M16 34h4M24 34h8M16 35h4M24 35h8M20 36h8M32 36h4M20 37h8M32 37h4M20 38h8M32 38h4M20 39h8M32 39h4M28 40h4M28 41h4M28 42h4M28 43h4" />
<path stroke="#b23147" d="M40 12h4M40 13h4M40 14h4M40 15h4M32 16h4M32 17h4M32 18h4M32 19h4M24 20h4M36 20h8M24 21h4M36 21h8M24 22h4M36 22h8M24 23h4M36 23h8M32 24h4M32 25h4M32 26h4M32 27h4M16 28h4M24 28h4M36 28h4M16 29h4M24 29h4M36 29h4M16 30h4M24 30h4M36 30h4M16 31h4M24 31h4M36 31h4M20 32h4M32 32h4M20 33h4M32 33h4M20 34h4M32 34h4M20 35h4M32 35h4M28 36h4M28 37h4M28 38h4M28 39h4M40 40h4M40 41h4M40 42h4M40 43h4" />
<path stroke="#905a7b" d="M16 40h4M16 41h4M16 42h4M16 43h4M12 44h4M12 45h4M12 46h4M12 47h4" />
<path stroke="#4b273c" d="M20 40h4M20 41h4M20 42h4M20 43h4M16 44h4M16 45h4M16 46h4M16 47h4" />
<path stroke="#6a6085" d="M12 48h4M12 49h4M12 50h4M12 51h4" />
<path stroke="#485867" d="M12 52h4M12 53h4M12 54h4M12 55h4M16 56h4M16 57h4M16 58h4M16 59h4" />
<path stroke="#362a48" d="M12 56h4M12 57h4M12 58h4M12 59h4" />
</svg>