<svg xmlns="http://www.w3.org/2000/svg" xmlns:xlink="http://www.w3.org/1999/xlink" width="18" height="18" viewBox="0 0 18 18">
  <defs>
    <filter id="Icon_ionic-ios-close" x="-2.23" y="-2.225" width="22.445" height="22.291" filterUnits="userSpaceOnUse">
      <feOffset input="SourceAlpha"/>
      <feGaussianBlur stdDeviation="1.5" result="blur"/>
      <feFlood flood-opacity="0.345"/>
      <feComposite operator="in" in2="blur"/>
      <feComposite in="SourceGraphic"/>
    </filter>
    <clipPath id="clip-Artboard_2">
      <rect width="18" height="18"/>
    </clipPath>
  </defs>
  <g id="Artboard_2" data-name="Artboard – 2" clip-path="url(#clip-Artboard_2)">
    <g id="Group_752" data-name="Group 752" transform="translate(0 1)">
      <g transform="matrix(1, 0, 0, 1, 0, -1)" filter="url(#Icon_ionic-ios-close)">
        <path id="Icon_ionic-ios-close-2" data-name="Icon ionic-ios-close" d="M18.769,17.276l4.979-4.988a1.018,1.018,0,0,0,0-1.439,1.033,1.033,0,0,0-1.448,0l-4.979,4.988-4.972-4.988a1.033,1.033,0,0,0-1.448,0,1.011,1.011,0,0,0,0,1.439l4.972,4.988-4.818,4.832a1.011,1.011,0,0,0,0,1.439,1.033,1.033,0,0,0,1.448,0l4.818-4.832,4.9,4.832a1.033,1.033,0,0,0,1.448,0,1.018,1.018,0,0,0,0-1.439Z" transform="translate(-8.33 -8.28)" fill="#fff"/>
      </g>
      <path id="Icon_ionic-ios-close-3" data-name="Icon ionic-ios-close" d="M19.944,18.289l5-5a1.172,1.172,0,0,0-1.657-1.657l-5,5-5-5a1.172,1.172,0,1,0-1.657,1.657l5,5-5,5a1.172,1.172,0,1,0,1.657,1.657l5-5,5,5a1.172,1.172,0,0,0,1.657-1.657Z" transform="translate(-9.285 -10.289)" fill="#fff"/>
    </g>
  </g>
</svg>
