<svg xmlns="http://www.w3.org/2000/svg" width="40" height="40" viewBox="0 0 40 40">
  <g id="_110801_sun_icon" data-name="110801_sun_icon" transform="translate(-161 -317)">
    <g id="Group_14223" data-name="Group 14223" transform="translate(113 269)">
      <path id="Path_30043" data-name="Path 30043" d="M68,57.231A10.769,10.769,0,1,0,78.769,68,10.782,10.782,0,0,0,68,57.231Zm0,18.462A7.692,7.692,0,1,1,75.692,68,7.692,7.692,0,0,1,68,75.692Zm0-21.538a1.539,1.539,0,0,0,1.538-1.538V49.538a1.538,1.538,0,1,0-3.077,0v3.077A1.539,1.539,0,0,0,68,54.154Zm0,27.692a1.539,1.539,0,0,0-1.538,1.538v3.077a1.538,1.538,0,0,0,3.077,0V83.385A1.539,1.539,0,0,0,68,81.846ZM79.965,58.208l2.175-2.175a1.538,1.538,0,0,0-2.175-2.175L77.79,56.033a1.538,1.538,0,0,0,2.175,2.175ZM56.035,77.792l-2.175,2.175a1.538,1.538,0,0,0,2.175,2.175l2.175-2.175a1.538,1.538,0,1,0-2.175-2.175ZM54.154,68a1.539,1.539,0,0,0-1.538-1.538H49.538a1.538,1.538,0,1,0,0,3.077h3.077A1.539,1.539,0,0,0,54.154,68Zm32.308-1.538H83.385a1.538,1.538,0,0,0,0,3.077h3.077a1.538,1.538,0,0,0,0-3.077ZM56.033,58.208a1.538,1.538,0,0,0,2.175-2.175l-2.175-2.175a1.538,1.538,0,0,0-2.175,2.175ZM79.967,77.79a1.538,1.538,0,0,0-2.175,2.175l2.175,2.175a1.538,1.538,0,1,0,2.175-2.175Z" fill="#ffbb52"/>
    </g>
  </g>
</svg>
